<?xml version="1.0" encoding="UTF-8" standalone="no"?>
<!-- Created with Inkscape (http://www.inkscape.org/) -->

<svg
   width="175.18762mm"
   height="79.763092mm"
   viewBox="0 0 175.18762 79.763092"
   version="1.1"
   id="svg2399"
   xml:space="preserve"
   xmlns:inkscape="http://www.inkscape.org/namespaces/inkscape"
   xmlns:sodipodi="http://sodipodi.sourceforge.net/DTD/sodipodi-0.dtd"
   xmlns="http://www.w3.org/2000/svg"
   xmlns:svg="http://www.w3.org/2000/svg"><sodipodi:namedview
     id="namedview2401"
     pagecolor="#ffffff"
     bordercolor="#000000"
     borderopacity="0.25"
     inkscape:showpageshadow="2"
     inkscape:pageopacity="0.0"
     inkscape:pagecheckerboard="0"
     inkscape:deskcolor="#d1d1d1"
     inkscape:document-units="mm"
     showgrid="false" /><defs
     id="defs2396" /><g
     inkscape:label="Calque 1"
     inkscape:groupmode="layer"
     id="layer1"
     transform="translate(-17.406199,-7.7419422)"><text
       xml:space="preserve"
       style="font-size:20.8645px;font-family:'.Al Nile PUA';-inkscape-font-specification:'.Al Nile PUA';text-align:center;text-anchor:middle;fill:#000000;stroke-width:3.26398"
       x="137.32547"
       y="87.250343"
       id="text186"
       inkscape:export-filename="gravity-beta-logo.svg"
       inkscape:export-xdpi="96"
       inkscape:export-ydpi="96"><tspan
         sodipodi:role="line"
         id="tspan184"
         x="137.32547"
         y="87.250343"
         style="font-style:normal;font-variant:normal;font-weight:normal;font-stretch:normal;font-family:'Arial Rounded MT Bold';-inkscape-font-specification:'Arial Rounded MT Bold, ';fill:#eb0e95;fill-opacity:1;stroke-width:3.26398">Beta</tspan></text><g
       style="clip-rule:evenodd;fill-rule:nonzero;stroke-linecap:round;stroke-linejoin:round;stroke-miterlimit:10"
       id="g3109"
       transform="matrix(0.07701827,0,0,0.07701827,-5.7906283,-27.703637)"><g
         id="Calque-1">
<g
   opacity="1"
   id="g3083">
<path
   d="m 1052.75,823.098 -85.015,-0.247 -72.629,377.029 h 90.472 c 20.792,-107.3 29.732,-171.07 42.292,-204.42 32.81,-87.145 78.32,-108.858 125.77,-102.583 l 15.62,-69.902 c -54.58,-2.708 -87.54,7.851 -121.89,49.947 -1.32,-1.957 -2.73,-1.442 -3.62,-1.673 z"
   fill="#4d249d"
   fill-rule="nonzero"
   opacity="1"
   stroke="#000000"
   stroke-linecap="butt"
   stroke-linejoin="miter"
   stroke-width="0"
   id="path3049" />
<path
   d="m 1406.08,819.155 c -96.65,0.753 -197.47,42.515 -248.1,174.373 -31.14,99.782 -14.71,199.182 80.19,217.882 15.97,1.72 24.99,0.76 34.95,-0.24 39.85,-5.34 74.61,-28.99 100.4,-65.99 l -10.3,58.02 h 87.42 l 71.51,-366.763 c -35.22,-10.607 -75.27,-17.601 -116.07,-17.282 z m -18.07,70.066 c 10.09,0.004 20.68,1.165 31.78,3.657 -18.95,93.187 -16.81,110.592 -39.78,165.992 -48.58,106.47 -144.74,109.52 -142.33,0 2.11,-61.538 52.77,-169.688 150.33,-169.649 z"
   fill="#4d249d"
   fill-rule="nonzero"
   opacity="1"
   stroke="#000000"
   stroke-linecap="butt"
   stroke-linejoin="miter"
   stroke-width="0"
   id="path3051" />
<path
   d="m 1651.62,828.391 -91.93,-0.294 47.29,376.853 h 100.81 l 165.33,-376.706 -104.88,-0.294 -89.03,226.66 z"
   fill="#4d249d"
   fill-rule="nonzero"
   opacity="1"
   stroke="#000000"
   stroke-linecap="butt"
   stroke-linejoin="miter"
   stroke-width="0"
   id="path3053" />
<path
   d="m 1920.97,828.398 h 91.07 l -72.15,377.212 h -91.1 z"
   fill="#4d249d"
   fill-rule="nonzero"
   opacity="1"
   stroke="#000000"
   stroke-linecap="butt"
   stroke-linejoin="miter"
   stroke-width="0"
   id="path3055" />
<g
   opacity="1"
   id="g3075">
<g
   opacity="1"
   id="g3061">
<path
   d="m 1979.33,724.431 104.91,-97.02 v 0 l 7.44,7.13 v 0 l -104.9,97.019 v 0 z"
   fill="#4d249d"
   fill-rule="nonzero"
   opacity="1"
   stroke="none"
   id="path3057" />
<path
   d="m 2059.49,627.411 c 0,-17.778 14.41,-32.19 32.19,-32.19 17.78,0 32.2,14.412 32.2,32.19 0,17.779 -14.42,32.19 -32.2,32.19 -17.78,0 -32.19,-14.411 -32.19,-32.19 z"
   fill="#e51183"
   fill-rule="nonzero"
   opacity="1"
   stroke="none"
   id="path3059" />
</g>
<g
   opacity="1"
   id="g3067">
<path
   d="m 1918.03,523.55 71.48,193.779 v 0 l -10.18,7.102 v 0 l -71.47,-193.78 v 0 z"
   fill="#4d249d"
   fill-rule="nonzero"
   opacity="1"
   stroke="none"
   id="path3063" />
<path
   d="m 1844.53,523.55 c 0,-34.975 28.35,-63.327 63.33,-63.327 34.96,0 63.32,28.352 63.32,63.327 0,34.975 -28.36,63.327 -63.32,63.327 -34.98,0 -63.33,-28.352 -63.33,-63.327 z"
   fill="#6732d0"
   fill-rule="nonzero"
   opacity="1"
   stroke="none"
   id="path3065" />
</g>
<path
   d="m 1794.64,718.22 h 184.69 v 0 13.34 0 h -184.69 v 0 z"
   fill="#4d249d"
   fill-rule="nonzero"
   opacity="1"
   stroke="none"
   id="path3069" />
<path
   d="m 1743.25,724.891 c 0,-28.379 23.01,-51.384 51.39,-51.384 28.37,0 51.38,23.005 51.38,51.384 0,28.377 -23.01,51.383 -51.38,51.383 -28.38,0 -51.39,-23.006 -51.39,-51.383 z"
   fill="#d1d2d1"
   fill-rule="nonzero"
   opacity="1"
   stroke="none"
   id="path3071" />
<path
   d="m 1902.19,724.891 c 0,-42.605 34.54,-77.143 77.14,-77.143 42.6,0 77.15,34.538 77.15,77.143 0,42.603 -34.55,77.141 -77.15,77.141 -42.6,0 -77.14,-34.538 -77.14,-77.141 z"
   fill="#4d249d"
   fill-rule="nonzero"
   opacity="1"
   stroke="none"
   id="path3073" />
</g>
<path
   d="m 2175.08,728.881 -95.16,26.034 -63.39,334.325 c -19.33,117.32 54.18,126.96 138.84,114.87 l 15.44,-74.58 c -68.59,12.61 -68.93,-17.99 -61.6,-58.11 l 33.7,-176.185 h 84.04 l 14.75,-71.137 h -85.07 z"
   fill="#4d249d"
   fill-rule="nonzero"
   opacity="1"
   stroke="#000000"
   stroke-linecap="butt"
   stroke-linejoin="miter"
   stroke-width="0"
   id="path3077" />
<path
   d="m 2354.06,823.229 h -92.02 l 46.81,373.701 -56.27,142.85 h 96.4 l 226.83,-516.649 h -104.68 l -89.24,226.849 z"
   fill="#4d249d"
   fill-rule="nonzero"
   opacity="1"
   stroke="#000000"
   stroke-linecap="butt"
   stroke-linejoin="miter"
   stroke-width="0"
   id="path3079" />
<path
   d="m 806.975,1195.31 c 0,0 -84.16,28.73 -126.424,34.53 -42.264,5.79 -84.464,7.01 -126.6,3.68 -44.836,-3.55 -84.674,-14.12 -119.512,-31.72 -34.837,-17.6 -63.127,-41.1 -84.871,-70.5 -21.744,-29.41 -36.306,-64.09 -43.688,-104.07 -7.382,-39.966 -6.057,-83.814 3.975,-131.539 10.033,-47.726 26.888,-90.345 50.568,-127.858 23.68,-37.511 52.063,-68.801 85.15,-93.868 33.088,-25.066 70.162,-43.396 111.223,-54.989 41.06,-11.591 84.009,-15.614 128.846,-12.066 45.917,3.633 86.95,12.731 123.097,27.293 36.148,14.561 65.873,37.034 89.174,67.418 l -88.377,78.129 c -14.812,-22.296 -33.329,-39.764 -55.553,-52.404 -22.224,-12.641 -51.509,-20.399 -87.857,-23.275 -30.29,-2.396 -58.857,0.784 -85.703,9.542 -26.845,8.758 -50.978,22.052 -72.398,39.881 -21.419,17.828 -39.625,39.592 -54.616,65.291 -14.992,25.698 -25.756,53.973 -32.291,84.821 -6.582,31.486 -7.816,60.674 -3.702,87.564 4.114,26.89 12.879,50.63 26.292,71.21 13.413,20.59 31.232,37.19 53.456,49.84 22.225,12.64 48.481,20.16 78.771,22.55 30.895,2.45 60.375,1.77 84.716,-2.71 22.71,-4.19 52.148,-12.24 66.642,-18.77 l 24.511,-140.577 -124.46,-3.169 15.807,-91.485 224.23,5.715 z"
   fill="#4d249d"
   fill-rule="nonzero"
   opacity="1"
   stroke="none"
   id="path3081" />
</g>
</g></g></g></svg>
